<svg height="9" width="23" viewBox="0, 0, 23, 9" xmlns="http://www.w3.org/2000/svg" class="svg">
	<polygon points="0,2 1,2 1,1 2,1 2,0 5,0 5,1 6,1 6,2 7,2 7,7 6,7 6,8 5,8 5,9 2,9 2,8 1,8 1,7 0,7 2,7 3,7 3,8 4,8 4,7 5,7 5,2 4,2 4,1 3,1 3,2 2,2 2,7 0,7" fill="red" stroke-width="0"></polygon>
	<polygon points="8,9 8,8 9,8 9,1 8,1 8,0 15,0 15,3 14,3 14,2 13,2 13,1 11,1 11,4 13,4 13,3 14,3 14,6 13,6 13,5 11,5 11,8 12,8 12,9" fill="red" stroke-width="0"></polygon>
	<polygon points="16,9 16,8 17,8 17,1 16,1 16,0 23,0 23,3 22,3 22,2 21,2 21,1 19,1 19,4 21,4 21,3 22,3 22,6 21,6 21,5 19,5 19,8 20,8 20,9" fill="red" stroke-width="0"></polygon>
</svg>
